<?xml version="1.0" encoding="utf-8"?>
<!-- Generator: Adobe Illustrator 22.0.1, SVG Export Plug-In . SVG Version: 6.00 Build 0)  -->
<svg version="1.1" title="Sykes Holiday Cottages" class="sykes_primary_logo" xmlns="http://www.w3.org/2000/svg" xmlns:xlink="http://www.w3.org/1999/xlink" x="0px" y="0px"
	 viewBox="0 0 1750 148" style="enable-background:new 0 0 1750 148;" xml:space="preserve">
<title>Sykes Holiday Cottages - Logo - Primary - Grey</title>
<path d="M115.3,86.8l-10.7-10.6V57.7c0-3.4-2.8-6.2-6.2-6.2s-6.2,2.8-6.2,6.2v6.1L78.3,49.8c-2.4-2.4-6.3-2.4-8.7,0c0,0,0,0,0,0
	L32.5,86.8c-2.4,2.5-2.3,6.4,0.2,8.7c2.4,2.3,6.2,2.3,8.5,0l32.7-32.7l32.7,32.7c2.4,2.5,6.3,2.5,8.7,0.2c2.5-2.4,2.5-6.3,0.2-8.7
	C115.4,87,115.4,86.9,115.3,86.8 M73.9,0C33.1,0,0,33.1,0,73.9s33.1,73.9,73.9,73.9s73.9-33.1,73.9-73.9S114.7,0,73.9,0
	C73.9,0,73.9,0,73.9,0 M73.9,12.3c34,0,61.6,27.6,61.5,61.6c0,34-27.6,61.6-61.6,61.5c-34,0-61.6-27.6-61.5-61.6
	c0-16.3,6.5-32,18.1-43.6C41.9,18.7,57.6,12.3,73.9,12.3 M199.6,147.8L199.6,147.8c-2.9,0-5.2-2.3-5.2-5.2l0,0V5.2
	c0.1-2.9,2.6-5.1,5.5-5c2.7,0.1,4.9,2.3,5,5v137.4C204.8,145.5,202.5,147.8,199.6,147.8L199.6,147.8 M1743.8,59l5.4-11.8
	c-3.7-2.4-7.7-4.2-11.9-5.4c-4.4-1.3-9-2-13.6-2c-4.7-0.1-9.5,0.8-13.9,2.5c-3.7,1.4-6.9,3.9-9.3,7.1c-2.2,3.1-3.4,6.9-3.3,10.7
	c0,4.4,1.1,8,3.2,10.7c2,2.6,4.7,4.7,7.8,6.1c3.8,1.6,7.7,3,11.7,4.1c3.5,1,6.2,1.9,8.3,2.7c1.9,0.7,3.6,1.8,5,3.2
	c2.7,2.8,2.6,7.4-0.2,10.1c-0.3,0.3-0.7,0.6-1,0.8c-2.2,1.4-5.1,2.2-8.9,2.2c-4.3-0.1-8.5-1.1-12.4-2.8c-4.4-1.9-8.5-4.5-12-7.8
	l-5.6,11.5c4.1,3.5,8.7,6.3,13.7,8.2c5.1,2,10.6,3.1,16.1,3.1c4.8,0.1,9.5-0.8,14-2.5c3.8-1.5,7.1-4,9.6-7.3
	c2.3-3.3,3.6-7.2,3.5-11.2c0-4.5-1.1-8.1-3.2-10.9c-2.1-2.7-4.7-4.8-7.8-6.2c-3.8-1.7-7.7-3.1-11.7-4.2c-2.8-0.8-5.5-1.7-8.1-2.8
	c-1.8-0.7-3.5-1.8-4.9-3.2c-1.3-1.3-2-3.1-2-4.9c0-2.1,1-4,2.8-5c2.3-1.3,5-2,7.7-1.8c3.4,0.1,6.8,0.7,10,1.8
	C1736.6,55.2,1740.3,56.9,1743.8,59 M1632.8,111.4h52.9V99.6h-39.4V81.9h34.3V70.1h-34.3V52.6h38.2V40.9h-51.7V111.4z M1605.4,95.8
	c-2.4,1.4-4.9,2.5-7.6,3.3c-2.5,0.7-5,1.1-7.6,1.1c-4.3,0-8.6-1.1-12.3-3.2c-3.7-2.1-6.7-5.1-8.8-8.8c-6.7-11.4-2.9-26.1,8.5-32.9
	c0.1,0,0.2-0.1,0.3-0.1c3.7-2.1,8-3.2,12.2-3.2c3.6,0,7.3,0.7,10.6,2.1c3.5,1.4,6.6,3.4,9.3,5.9l7.7-10c-3.7-3.3-8-5.8-12.7-7.5
	c-4.8-1.8-9.8-2.7-14.9-2.7c-6.7-0.1-13.4,1.6-19.3,4.8c-5.7,3-10.4,7.5-13.8,13c-3.4,5.5-5.1,11.9-5,18.3
	c-0.1,6.5,1.6,12.8,4.9,18.4c3.2,5.5,7.9,10,13.5,13.2c5.8,3.2,12.3,4.9,18.9,4.8c5,0,10.1-0.9,14.8-2.6c4.7-1.5,9.1-3.8,13.1-6.7
	V76.3h-11.8L1605.4,95.8z M1520.2,40.9h-14l-30.9,70.6h14l6.2-14.9h34.5l6.2,14.9h14.5L1520.2,40.9z M1500.4,84.9l12.5-29.6
	l12.3,29.6H1500.4z M1424.1,52.8h22v58.6h13.6V52.8h22v-12h-57.6V52.8z M1362.8,52.8h22v58.6h13.6V52.8h22v-12h-57.5V52.8z
	 M1355.4,57.7c-3.3-5.5-7.9-10-13.6-13c-11.9-6.3-26.2-6.3-38.2,0c-17.4,9.7-23.6,31.7-13.9,49.1c0.1,0.2,0.2,0.4,0.4,0.6
	c3.3,5.5,7.9,10.1,13.6,13.2c11.9,6.4,26.3,6.4,38.2,0c5.6-3.1,10.3-7.6,13.6-13.2C1362,83.1,1362,69.1,1355.4,57.7L1355.4,57.7z
	 M1343.4,88.2c-2.1,3.6-5,6.7-8.6,8.8c-3.6,2.1-7.6,3.3-11.8,3.2c-4.2,0-8.3-1.1-11.9-3.2c-3.6-2.1-6.7-5.1-8.8-8.8
	c-6.7-11.4-2.9-26.1,8.5-32.9c3.7-2.2,7.9-3.3,12.2-3.3c4.1,0,8.2,1.1,11.8,3.2c3.6,2.1,6.6,5.1,8.6,8.7c2.1,3.7,3.2,7.9,3.2,12.1
	C1346.6,80.3,1345.5,84.5,1343.4,88.2L1343.4,88.2z M1273.1,61.2l7.9-9.9c-3.5-3.6-7.7-6.5-12.4-8.4c-10.9-4.6-23.3-3.9-33.7,1.7
	c-5.6,3.1-10.2,7.5-13.5,13c-3.3,5.5-5,11.9-4.9,18.3c-0.1,6.5,1.6,12.8,4.8,18.4c3.2,5.5,7.8,10,13.3,13.2
	c5.7,3.2,12.1,4.9,18.6,4.8c5.1,0,10.2-1.1,14.9-3.3c4.8-2.1,9.2-5.2,12.9-8.9l-8-8.9c-2.6,2.6-5.6,4.7-9,6.1
	c-3.2,1.4-6.6,2.2-10.1,2.2c-4.2,0-8.4-1.1-12-3.2c-3.6-2.1-6.5-5.1-8.6-8.7c-4.2-7.5-4.2-16.6,0-24.1c2-3.6,5-6.6,8.6-8.6
	c6.9-3.9,15.2-4.2,22.3-0.7C1267.6,56.1,1270.6,58.4,1273.1,61.2 M1164.9,40.9L1145.9,74l-19.2-33.2H1113l26.3,48v22.6h13.5V88.3
	l25.7-47.5H1164.9z M1087.8,40.9h-14l-30.9,70.6h14l6.2-14.9h34.5l6.2,14.9h14.5L1087.8,40.9z M1067.9,84.9l12.5-29.6l12.3,29.6
	H1067.9z M1036.9,57.9c-3.1-5.3-7.7-9.7-13.1-12.5c-5.9-3.1-12.4-4.6-19-4.5h-29.3v70.6h28.8c6.7,0.1,13.3-1.4,19.2-4.5
	c5.5-2.9,10.1-7.2,13.3-12.5c3.2-5.5,4.9-11.8,4.8-18.2C1041.7,69.7,1040.1,63.4,1036.9,57.9z M1024.9,88.3
	c-1.9,3.5-4.7,6.3-8.1,8.3c-3.5,2-7.6,3-11.6,3H989V52.7h15.6c4.1,0,8.2,1,11.8,3c3.5,2,6.4,4.9,8.3,8.4
	C1028.8,71.7,1028.8,80.7,1024.9,88.3L1024.9,88.3z M944.6,40.9h13.5v70.6h-13.5V40.9z M890.1,111.4h43.9V99.2h-30.4V40.9h-13.5
	V111.4z M873.3,57.7c-3.3-5.5-7.9-10-13.6-13c-12-6.3-26.3-6.3-38.2,0c-17.4,9.7-23.6,31.7-13.9,49.1c0.1,0.2,0.2,0.4,0.4,0.6
	c3.3,5.5,7.9,10.1,13.6,13.2c11.9,6.5,26.3,6.5,38.2,0c5.6-3.1,10.3-7.6,13.6-13.2C879.9,83.1,879.9,69.1,873.3,57.7L873.3,57.7z
	 M861.2,88.2c-2.1,3.6-5,6.7-8.6,8.8c-3.6,2.1-7.6,3.2-11.8,3.2c-4.2,0-8.3-1.1-11.9-3.2c-3.6-2.1-6.7-5.1-8.8-8.8
	c-6.7-11.4-2.9-26.1,8.5-32.9c3.7-2.2,7.9-3.3,12.2-3.3c4.1,0,8.2,1.1,11.8,3.2c3.6,2.1,6.6,5.1,8.6,8.7c2.1,3.7,3.2,7.9,3.2,12.1
	C864.4,80.3,863.3,84.5,861.2,88.2z M728.9,111.4h13.5V82.8h35.2v28.6h13.5V40.9h-13.5V71h-35.2V40.9h-13.5V111.4z M663.7,65.2
	l8.5-17.8c-4.4-2.7-9.2-4.8-14.3-6.1c-5.4-1.5-10.9-2.3-16.5-2.3c-5.4-0.1-10.9,0.8-15.9,2.8c-4.2,1.6-7.9,4.4-10.6,8.1
	c-2.5,3.6-3.8,7.9-3.7,12.3c0,4.8,1.2,8.7,3.6,11.6c2.3,2.8,5.3,5,8.6,6.4c4.1,1.6,8.2,3,12.4,4c3.1,0.7,6.1,1.6,9,2.9
	c1.9,0.9,2.9,2.2,2.9,3.8c0.1,1.2-0.5,2.4-1.5,3c-1.3,0.7-2.7,1.1-4.1,1c-3.6,0-8.1-1.1-13.5-3.3c-4.9-1.9-9.4-4.6-13.4-8l-8.6,17.6
	c5,3.7,10.5,6.6,16.5,8.4c6.1,2,12.5,3,18.9,3.1c5.1,0.1,10.2-0.8,15-2.5c4.2-1.5,8-4.2,10.7-7.7c2.7-3.7,4.2-8.2,4-12.8
	c0-5-1.2-9-3.7-12c-2.3-2.9-5.3-5.2-8.7-6.7c-4.1-1.7-8.3-3.1-12.5-4.2c-3-0.7-6-1.7-8.8-2.9c-1.9-0.9-2.8-2.1-2.8-3.7
	c0-2.1,1.4-3.1,4.3-3.1c2.9,0,6.7,0.8,11.5,2.5C655.3,61,659.6,62.9,663.7,65.2 M524.1,111.4h60.7V93.7h-37.3v-8.8h33.1V67.2h-33.1
	v-8.7h36.4V40.8h-59.8V111.4z M475.1,69l25.3-28.2h-26.9l-21.1,25.8V40.8H429v70.7h23.4V94.3l6.7-7.5l14.9,24.6h27.9L475.1,69z
	 M384.6,40.8L370.9,68l-14.2-27.2h-23.3l25.8,49.2v21.5h23.4v-22l25.3-48.7H384.6z M308.3,65.2l8.5-17.8c-4.4-2.7-9.2-4.8-14.3-6.1
	c-5.4-1.5-10.9-2.3-16.5-2.3c-5.4-0.1-10.9,0.8-15.9,2.8c-4.2,1.6-7.9,4.4-10.6,8.1c-2.5,3.6-3.8,8-3.7,12.4c0,4.8,1.2,8.7,3.6,11.6
	c2.3,2.8,5.3,5,8.6,6.4c4.1,1.6,8.2,3,12.4,4c3.1,0.7,6.1,1.6,9,2.9c1.9,0.9,2.9,2.2,2.9,3.8c0.1,1.2-0.5,2.4-1.5,3
	c-1.3,0.7-2.7,1.1-4.1,1c-3.6,0-8.1-1.1-13.5-3.3c-4.9-1.9-9.4-4.6-13.4-7.9l-8.6,17.5c5,3.7,10.5,6.6,16.5,8.4
	c6.1,2,12.5,3,18.9,3.1c5.1,0.1,10.2-0.8,15-2.5c4.2-1.5,8-4.2,10.7-7.7c2.7-3.7,4.2-8.2,4-12.8c0-5-1.2-9-3.7-12
	c-2.3-2.9-5.3-5.2-8.7-6.7c-4.1-1.7-8.3-3.1-12.6-4.3c-3-0.7-6-1.7-8.8-2.9c-1.8-0.9-2.8-2.1-2.8-3.7c0-2.1,1.4-3.1,4.3-3.1
	c2.9,0,6.7,0.8,11.5,2.5C299.9,61,304.2,62.9,308.3,65.2"/>
</svg>
