<svg width="148" height="148" xmlns="http://www.w3.org/2000/svg">
 <style type="text/css">.st0{fill:#FFFFFF;}</style>

 <title>Sykes Holiday Cottages - Logo - Primary - Grey</title>
 <g>
  <title>background</title>
  <rect fill="none" id="canvas_background" height="150" width="150" y="-1" x="-1"/>
 </g>
 <g>
  <title>Layer 1</title>
  <path id="svg_1" d="m115.3,86.8l-10.7,-10.6l0,-18.5c0,-3.4 -2.8,-6.2 -6.2,-6.2s-6.2,2.8 -6.2,6.2l0,6.1l-13.9,-14c-2.4,-2.4 -6.3,-2.4 -8.7,0l-37.1,37c-2.4,2.5 -2.3,6.4 0.2,8.7c2.4,2.3 6.2,2.3 8.5,0l32.7,-32.7l32.7,32.7c2.4,2.5 6.3,2.5 8.7,0.2c2.5,-2.4 2.5,-6.3 0.2,-8.7c-0.1,0 -0.1,-0.1 -0.2,-0.2m-41.4,-86.8c-40.8,0 -73.9,33.1 -73.9,73.9s33.1,73.9 73.9,73.9s73.9,-33.1 73.9,-73.9s-33.1,-73.9 -73.9,-73.9m0,12.3c34,0 61.6,27.6 61.5,61.6c0,34 -27.6,61.6 -61.6,61.5c-34,0 -61.6,-27.6 -61.5,-61.6c0,-16.3 6.5,-32 18.1,-43.6c11.5,-11.5 27.2,-17.9 43.5,-17.9m125.7,135.5c-2.9,0 -5.2,-2.3 -5.2,-5.2l0,-137.4c0.1,-2.9 2.6,-5.1 5.5,-5c2.7,0.1 4.9,2.3 5,5l0,137.4c-0.1,2.9 -2.4,5.2 -5.3,5.2m1544.2,-88.8l5.4,-11.8c-3.7,-2.4 -7.7,-4.2 -11.9,-5.4c-4.4,-1.3 -9,-2 -13.6,-2c-4.7,-0.1 -9.5,0.8 -13.9,2.5c-3.7,1.4 -6.9,3.9 -9.3,7.1c-2.2,3.1 -3.4,6.9 -3.3,10.7c0,4.4 1.1,8 3.2,10.7c2,2.6 4.7,4.7 7.8,6.1c3.8,1.6 7.7,3 11.7,4.1c3.5,1 6.2,1.9 8.3,2.7c1.9,0.7 3.6,1.8 5,3.2c2.7,2.8 2.6,7.4 -0.2,10.1c-0.3,0.3 -0.7,0.6 -1,0.8c-2.2,1.4 -5.1,2.2 -8.9,2.2c-4.3,-0.1 -8.5,-1.1 -12.4,-2.8c-4.4,-1.9 -8.5,-4.5 -12,-7.8l-5.6,11.5c4.1,3.5 8.7,6.3 13.7,8.2c5.1,2 10.6,3.1 16.1,3.1c4.8,0.1 9.5,-0.8 14,-2.5c3.8,-1.5 7.1,-4 9.6,-7.3c2.3,-3.3 3.6,-7.2 3.5,-11.2c0,-4.5 -1.1,-8.1 -3.2,-10.9c-2.1,-2.7 -4.7,-4.8 -7.8,-6.2c-3.8,-1.7 -7.7,-3.1 -11.7,-4.2c-2.8,-0.8 -5.5,-1.7 -8.1,-2.8c-1.8,-0.7 -3.5,-1.8 -4.9,-3.2c-1.3,-1.3 -2,-3.1 -2,-4.9c0,-2.1 1,-4 2.8,-5c2.3,-1.3 5,-2 7.7,-1.8c3.4,0.1 6.8,0.7 10,1.8c3.8,1.2 7.5,2.9 11,5m-111,52.4l52.9,0l0,-11.8l-39.4,0l0,-17.7l34.3,0l0,-11.8l-34.3,0l0,-17.5l38.2,0l0,-11.7l-51.7,0l0,70.5zm-27.4,-15.6c-2.4,1.4 -4.9,2.5 -7.6,3.3c-2.5,0.7 -5,1.1 -7.6,1.1c-4.3,0 -8.6,-1.1 -12.3,-3.2s-6.7,-5.1 -8.8,-8.8c-6.7,-11.4 -2.9,-26.1 8.5,-32.9c0.1,0 0.2,-0.1 0.3,-0.1c3.7,-2.1 8,-3.2 12.2,-3.2c3.6,0 7.3,0.7 10.6,2.1c3.5,1.4 6.6,3.4 9.3,5.9l7.7,-10c-3.7,-3.3 -8,-5.8 -12.7,-7.5c-4.8,-1.8 -9.8,-2.7 -14.9,-2.7c-6.7,-0.1 -13.4,1.6 -19.3,4.8c-5.7,3 -10.4,7.5 -13.8,13s-5.1,11.9 -5,18.3c-0.1,6.5 1.6,12.8 4.9,18.4c3.2,5.5 7.9,10 13.5,13.2c5.8,3.2 12.3,4.9 18.9,4.8c5,0 10.1,-0.9 14.8,-2.6c4.7,-1.5 9.1,-3.8 13.1,-6.7l0,-26.7l-11.8,0l0,19.5l0,0zm-85.2,-54.9l-14,0l-30.9,70.6l14,0l6.2,-14.9l34.5,0l6.2,14.9l14.5,0l-30.5,-70.6l0,0zm-19.8,44l12.5,-29.6l12.3,29.6l-24.8,0zm-76.3,-32.1l22,0l0,58.6l13.6,0l0,-58.6l22,0l0,-12l-57.6,0l0,12zm-61.3,0l22,0l0,58.6l13.6,0l0,-58.6l22,0l0,-12l-57.5,0l-0.1,12l0,0zm-7.4,4.9c-3.3,-5.5 -7.9,-10 -13.6,-13c-11.9,-6.3 -26.2,-6.3 -38.2,0c-17.4,9.7 -23.6,31.7 -13.9,49.1c0.1,0.2 0.2,0.4 0.4,0.6c3.3,5.5 7.9,10.1 13.6,13.2c11.9,6.4 26.3,6.4 38.2,0c5.6,-3.1 10.3,-7.6 13.6,-13.2c6.5,-11.3 6.5,-25.3 -0.1,-36.7zm-12,30.5c-2.1,3.6 -5,6.7 -8.6,8.8s-7.6,3.3 -11.8,3.2c-4.2,0 -8.3,-1.1 -11.9,-3.2s-6.7,-5.1 -8.8,-8.8c-6.7,-11.4 -2.9,-26.1 8.5,-32.9c3.7,-2.2 7.9,-3.3 12.2,-3.3c4.1,0 8.2,1.1 11.8,3.2s6.6,5.1 8.6,8.7c2.1,3.7 3.2,7.9 3.2,12.1c0,4.3 -1.1,8.5 -3.2,12.2l0,0zm-70.3,-27l7.9,-9.9c-3.5,-3.6 -7.7,-6.5 -12.4,-8.4c-10.9,-4.6 -23.3,-3.9 -33.7,1.7c-5.6,3.1 -10.2,7.5 -13.5,13s-5,11.9 -4.9,18.3c-0.1,6.5 1.6,12.8 4.8,18.4c3.2,5.5 7.8,10 13.3,13.2c5.7,3.2 12.1,4.9 18.6,4.8c5.1,0 10.2,-1.1 14.9,-3.3c4.8,-2.1 9.2,-5.2 12.9,-8.9l-8,-8.9c-2.6,2.6 -5.6,4.7 -9,6.1c-3.2,1.4 -6.6,2.2 -10.1,2.2c-4.2,0 -8.4,-1.1 -12,-3.2s-6.5,-5.1 -8.6,-8.7c-4.2,-7.5 -4.2,-16.6 0,-24.1c2,-3.6 5,-6.6 8.6,-8.6c6.9,-3.9 15.2,-4.2 22.3,-0.7c3.4,1.9 6.4,4.2 8.9,7m-108.2,-20.3l-19,33.1l-19.2,-33.2l-13.7,0l26.3,48l0,22.6l13.5,0l0,-23.1l25.7,-47.5l-13.6,0l0,0.1zm-77.1,0l-14,0l-30.9,70.6l14,0l6.2,-14.9l34.5,0l6.2,14.9l14.5,0l-30.5,-70.6l0,0zm-19.9,44l12.5,-29.6l12.3,29.6l-24.8,0zm-31,-27c-3.1,-5.3 -7.7,-9.7 -13.1,-12.5c-5.9,-3.1 -12.4,-4.6 -19,-4.5l-29.3,0l0,70.6l28.8,0c6.7,0.1 13.3,-1.4 19.2,-4.5c5.5,-2.9 10.1,-7.2 13.3,-12.5c3.2,-5.5 4.9,-11.8 4.8,-18.2c0.1,-6.6 -1.5,-12.9 -4.7,-18.4l0,0zm-12,30.4c-1.9,3.5 -4.7,6.3 -8.1,8.3c-3.5,2 -7.6,3 -11.6,3l-16.2,0l0,-46.9l15.6,0c4.1,0 8.2,1 11.8,3c3.5,2 6.4,4.9 8.3,8.4c4.1,7.6 4.1,16.6 0.2,24.2zm-80.3,-47.4l13.5,0l0,70.6l-13.5,0l0,-70.6zm-54.5,70.5l43.9,0l0,-12.2l-30.4,0l0,-58.3l-13.5,0l0,70.5zm-16.8,-53.7c-3.3,-5.5 -7.9,-10 -13.6,-13c-12,-6.3 -26.3,-6.3 -38.2,0c-17.4,9.7 -23.6,31.7 -13.9,49.1c0.1,0.2 0.2,0.4 0.4,0.6c3.3,5.5 7.9,10.1 13.6,13.2c11.9,6.5 26.3,6.5 38.2,0c5.6,-3.1 10.3,-7.6 13.6,-13.2c6.5,-11.3 6.5,-25.3 -0.1,-36.7zm-12.1,30.5c-2.1,3.6 -5,6.7 -8.6,8.8s-7.6,3.2 -11.8,3.2s-8.3,-1.1 -11.9,-3.2s-6.7,-5.1 -8.8,-8.8c-6.7,-11.4 -2.9,-26.1 8.5,-32.9c3.7,-2.2 7.9,-3.3 12.2,-3.3c4.1,0 8.2,1.1 11.8,3.2s6.6,5.1 8.6,8.7c2.1,3.7 3.2,7.9 3.2,12.1c0,4.3 -1.1,8.5 -3.2,12.2zm-132.3,23.2l13.5,0l0,-28.6l35.2,0l0,28.6l13.5,0l0,-70.5l-13.5,0l0,30.1l-35.2,0l0,-30.1l-13.5,0l0,70.5zm-65.2,-46.2l8.5,-17.8c-4.4,-2.7 -9.2,-4.8 -14.3,-6.1c-5.4,-1.5 -10.9,-2.3 -16.5,-2.3c-5.4,-0.1 -10.9,0.8 -15.9,2.8c-4.2,1.6 -7.9,4.4 -10.6,8.1c-2.5,3.6 -3.8,7.9 -3.7,12.3c0,4.8 1.2,8.7 3.6,11.6c2.3,2.8 5.3,5 8.6,6.4c4.1,1.6 8.2,3 12.4,4c3.1,0.7 6.1,1.6 9,2.9c1.9,0.9 2.9,2.2 2.9,3.8c0.1,1.2 -0.5,2.4 -1.5,3c-1.3,0.7 -2.7,1.1 -4.1,1c-3.6,0 -8.1,-1.1 -13.5,-3.3c-4.9,-1.9 -9.4,-4.6 -13.4,-8l-8.6,17.6c5,3.7 10.5,6.6 16.5,8.4c6.1,2 12.5,3 18.9,3.1c5.1,0.1 10.2,-0.8 15,-2.5c4.2,-1.5 8,-4.2 10.7,-7.7c2.7,-3.7 4.2,-8.2 4,-12.8c0,-5 -1.2,-9 -3.7,-12c-2.3,-2.9 -5.3,-5.2 -8.7,-6.7c-4.1,-1.7 -8.3,-3.1 -12.5,-4.2c-3,-0.7 -6,-1.7 -8.8,-2.9c-1.9,-0.9 -2.8,-2.1 -2.8,-3.7c0,-2.1 1.4,-3.1 4.3,-3.1s6.7,0.8 11.5,2.5c4.3,1.4 8.6,3.3 12.7,5.6m-139.6,46.2l60.7,0l0,-17.7l-37.3,0l0,-8.8l33.1,0l0,-17.7l-33.1,0l0,-8.7l36.4,0l0,-17.7l-59.8,0l0,70.6l0,0zm-49,-42.4l25.3,-28.2l-26.9,0l-21.1,25.8l0,-25.8l-23.4,0l0,70.7l23.4,0l0,-17.2l6.7,-7.5l14.9,24.6l27.9,0c0,0 -26.8,-42.4 -26.8,-42.4zm-90.5,-28.2l-13.7,27.2l-14.2,-27.2l-23.3,0l25.8,49.2l0,21.5l23.4,0l0,-22l25.3,-48.7l-23.3,0l0,0zm-76.3,24.4l8.5,-17.8c-4.4,-2.7 -9.2,-4.8 -14.3,-6.1c-5.4,-1.5 -10.9,-2.3 -16.5,-2.3c-5.4,-0.1 -10.9,0.8 -15.9,2.8c-4.2,1.6 -7.9,4.4 -10.6,8.1c-2.5,3.6 -3.8,8 -3.7,12.4c0,4.8 1.2,8.7 3.6,11.6c2.3,2.8 5.3,5 8.6,6.4c4.1,1.6 8.2,3 12.4,4c3.1,0.7 6.1,1.6 9,2.9c1.9,0.9 2.9,2.2 2.9,3.8c0.1,1.2 -0.5,2.4 -1.5,3c-1.3,0.7 -2.7,1.1 -4.1,1c-3.6,0 -8.1,-1.1 -13.5,-3.3c-4.9,-1.9 -9.4,-4.6 -13.4,-7.9l-8.6,17.5c5,3.7 10.5,6.6 16.5,8.4c6.1,2 12.5,3 18.9,3.1c5.1,0.1 10.2,-0.8 15,-2.5c4.2,-1.5 8,-4.2 10.7,-7.7c2.7,-3.7 4.2,-8.2 4,-12.8c0,-5 -1.2,-9 -3.7,-12c-2.3,-2.9 -5.3,-5.2 -8.7,-6.7c-4.1,-1.7 -8.3,-3.1 -12.6,-4.3c-3,-0.7 -6,-1.7 -8.8,-2.9c-1.8,-0.9 -2.8,-2.1 -2.8,-3.7c0,-2.1 1.4,-3.1 4.3,-3.1s6.7,0.8 11.5,2.5c4.4,1.4 8.7,3.3 12.8,5.6" class="st0"/>
 </g>
</svg>